<?xml version="1.0" standalone="yes"?><svg xmlns="http://www.w3.org/2000/svg" xmlns:xlink="http://www.w3.org/1999/xlink" cursor="default" style="zoom: 1;" height="110" id="svg" width="150" version="1.1" visibility="visible"><g id="svgg" visibility="hidden"><path stroke="none" fill-rule="evenodd" id="path0" d="M7.753006,7.632996 C5.514008,8.738007 5.600006,6.835999 5.600006,55.197006 L5.600006,100.154999 L6.565002,101.278 L7.531006,102.399994 L41.988998,102.507004 L76.447998,102.613007 L77.623993,101.436996 L78.800003,100.261993 L78.800003,90.919998 C78.800003,77.738007 81.339005,79.005005 54.921997,79.001999 L35.244995,79 L34.121994,78.035004 C32.026993,76.231995 32.335999,68.557007 34.554993,67.285004 C35.153,66.940994 39.524002,66.742004 49.535004,66.600006 L63.669998,66.399994 L64.634995,65.278 C65.858002,63.856003 66.156006,47.235992 64.998993,44.998993 C64.054001,43.171005 62.666,43.005005 48.322006,43.001999 L35.244995,43 L34.121994,42.035004 C32.026993,40.231995 32.335999,32.557007 34.554993,31.285004 C35.173996,30.929993 40.947006,30.746002 56.134995,30.600006 L76.869995,30.399994 L77.835007,29.278 C78.794998,28.162003 78.800003,28.102997 78.800003,18.951004 C78.800003,8.908005 78.712006,8.457001 76.580994,7.565994 C74.462006,6.681 9.554993,6.744003 7.753006,7.632996 " fill="#f3f3f3" visibility="visible"></path><path stroke="none" fill-rule="evenodd" id="path2" d="M95.800003,4.035004 C86.608002,5.354996 85.720993,5.729996 86.358002,8.024002 C87.102005,10.703995 86.932999,27.473999 86.132996,30.324005 C84.755005,35.235001 80.671997,38.005997 74.100006,38.490997 C70.960007,38.723007 70.873001,38.809006 71.862,40.720001 C74.516998,45.850006 74.371994,64.714996 71.643997,69.128998 C70.604004,70.811996 70.794998,70.998993 73.567001,71.005005 C84.197998,71.026993 86.949997,75.438004 86.731995,92.104996 C86.613998,101.123993 86.669006,102.231995 87.244995,102.414993 C94.281006,104.643997 108.037994,104.699997 117.072998,102.535004 L120.746994,101.654999 L123.397995,104.028 C130.781006,110.632004 129.912003,110.733002 140.138,102.082001 C149.661011,94.026001 149.556,94.494003 143.26001,88.106995 L139.028015,83.813995 L139.796997,80.507004 C140.885986,75.824997 141.220001,35.585999 140.217987,29.779999 C137.898987,16.341995 129.554001,8.110992 115.056,4.962006 C111.511993,4.192001 98.925995,3.587006 95.800003,4.035004 M107.507996,28.009995 C113.785004,29.873993 114.399994,32.192993 114.399994,54 C114.399994,75.807007 113.785004,78.126007 107.507996,79.990005 C100.070007,82.199005 93.061996,79.561005 91.309006,73.893005 C90.253006,70.477005 90.235001,37.578003 91.287994,34.181 C93.065994,28.440994 100.035004,25.789993 107.507996,28.009995 " fill="#f3c35c" visibility="visible"></path></g></svg>