<?xml version="1.0" standalone="yes"?><svg xmlns="http://www.w3.org/2000/svg" xmlns:xlink="http://www.w3.org/1999/xlink" cursor="default" style="zoom: 1;" height="100(null)" id="svg" viewBox="0 0 100 100" width="100(null)" version="1.1" visibility="visible"><g id="svgg" visibility="visible"><path stroke="none" fill-rule="evenodd" id="path0" d="M6.753006,7.632996 C4.514008,8.738007 4.600006,6.835999 4.600006,55.197006 L4.600006,100.154999 L5.565002,101.278 L6.531006,102.399994 L40.988998,102.507004 L75.447998,102.613007 L76.623993,101.436996 L77.800003,100.261993 L77.800003,90.919998 C77.800003,77.738007 80.339005,79.005005 53.921997,79.001999 L34.244995,79 L33.121994,78.035004 C31.026993,76.231995 31.335999,68.557007 33.554993,67.285004 C34.153,66.940994 38.524002,66.742004 48.535004,66.600006 L62.669998,66.399994 L63.634995,65.278 C64.858002,63.856003 65.156006,47.235992 63.998993,44.998993 C63.054001,43.171005 61.666,43.005005 47.322006,43.001999 L34.244995,43 L33.121994,42.035004 C31.026993,40.231995 31.335999,32.557007 33.554993,31.285004 C34.173996,30.929993 39.947006,30.746002 55.134995,30.600006 L75.869995,30.399994 L76.835007,29.278 C77.794998,28.162003 77.800003,28.102997 77.800003,18.951004 C77.800003,8.908005 77.712006,8.457001 75.580994,7.565994 C73.462006,6.681 8.554993,6.744003 6.753006,7.632996" fill="#f3f3f3" visibility="visible"></path><path stroke="none" fill-rule="evenodd" id="path2" d="M94.800003,4.035004 C85.608002,5.354996 84.720993,5.729996 85.358002,8.024002 C86.102005,10.703995 85.932999,27.473999 85.132996,30.324005 C83.755005,35.235001 79.671997,38.005997 73.100006,38.490997 C69.960007,38.723007 69.873001,38.809006 70.862,40.720001 C73.516998,45.850006 73.371994,64.714996 70.643997,69.128998 C69.604004,70.811996 69.794998,70.998993 72.567001,71.005005 C83.197998,71.026993 85.949997,75.438004 85.731995,92.104996 C85.613998,101.123993 85.669006,102.231995 86.244995,102.414993 C93.281006,104.643997 107.037994,104.699997 116.072998,102.535004 L119.746994,101.654999 L122.397995,104.028 C129.781006,110.632004 128.912003,110.733002 139.138,102.082001 C148.661011,94.026001 148.556,94.494003 142.26001,88.106995 L138.028015,83.813995 L138.796997,80.507004 C139.885986,75.824997 140.220001,35.585999 139.217987,29.779999 C136.898987,16.341995 128.554001,8.110992 114.056,4.962006 C110.511993,4.192001 97.925995,3.587006 94.800003,4.035004 M106.507996,28.009995 C112.785004,29.873993 113.399994,32.192993 113.399994,54 C113.399994,75.807007 112.785004,78.126007 106.507996,79.990005 C99.070007,82.199005 92.061996,79.561005 90.309006,73.893005 C89.253006,70.477005 89.235001,37.578003 90.287994,34.181 C92.065994,28.440994 99.035004,25.789993 106.507996,28.009995" fill="#f3c35c" visibility="visible"></path></g></svg>