<svg xmlns="http://www.w3.org/2000/svg" xmlns:xlink="http://www.w3.org/1999/xlink" height="110.41269840068432" style="zoom: 1;" cursor="crosshair" width="147" version="1.1" visibility="visible"><rect id="backgroundrect" width="100%" height="100%" x="0" y="0" fill="none" stroke="none" class="" style=""/><g class="currentLayer" style=""><title>Layer 1</title><g id="svgg" visibility="hidden" class=""><path stroke="none" fill-rule="evenodd" id="path0" d="M6.356178024291978,6.982201202392588 C4.117178024292002,8.087201202392578 4.2031780242919865,6.185201202392591 4.2031780242919865,54.54620120239258 L4.2031780242919865,99.50420120239258 L5.16817802429199,100.62720120239257 L6.134178024291998,101.74920120239258 L40.592178024292,101.85620120239258 L75.051178024292,101.96220120239258 L76.22717802429199,100.78620120239259 L77.403178024292,99.61120120239258 L77.403178024292,90.26920120239257 C77.403178024292,77.08720120239258 79.94217802429199,78.35420120239257 53.52517802429199,78.35120120239259 L33.848178024292,78.34920120239258 L32.725178024292006,77.38420120239257 C30.63017802429198,75.58120120239258 30.939178024292005,67.90620120239257 33.158178024292,66.63420120239257 C33.756178024291984,66.29020120239258 38.12717802429199,66.09120120239257 48.13817802429199,65.94920120239257 L62.27317802429198,65.74920120239258 L63.23817802429198,64.62720120239257 C64.461178024292,63.20520120239257 64.759178024292,46.58520120239257 63.60217802429199,44.34820120239257 C62.657178024291994,42.52020120239257 61.26917802429199,42.354201202392574 46.925178024291995,42.35120120239259 L33.848178024292,42.34920120239258 L32.725178024292006,41.384201202392575 C30.63017802429198,39.58120120239258 30.939178024292005,31.906201202392566 33.158178024292,30.634201202392575 C33.777178024292,30.279201202392585 39.550178024291995,30.095201202392587 54.73817802429198,29.949201202392572 L75.473178024292,29.749201202392584 L76.438178024292,28.627201202392577 C77.39817802429198,27.511201202392584 77.403178024292,27.452201202392587 77.403178024292,18.30020120239257 C77.403178024292,8.257201202392565 77.31517802429198,7.806201202392572 75.18417802429198,6.915201202392581 C73.06517802429198,6.03020120239259 8.158178024291999,6.093201202392578 6.356178024291978,6.982201202392588 " fill="#f3f3f3" visibility="visible"/><path stroke="none" fill-rule="evenodd" id="path2" d="M94.403178024292,3.3842012023925747 C85.211178024292,4.704201202392568 84.324178024292,5.079201202392568 84.961178024292,7.373201202392579 C85.705178024292,10.053201202392586 85.53617802429198,26.823201202392568 84.736178024292,29.67320120239259 C83.35817802429199,34.58420120239259 79.27517802429199,37.35520120239258 72.70317802429199,37.84020120239259 C69.563178024292,38.07220120239259 69.47617802429198,38.158201202392576 70.46517802429199,40.06920120239258 C73.12017802429199,45.19920120239257 72.975178024292,64.06420120239258 70.247178024292,68.47820120239257 C69.207178024292,70.16120120239259 69.39817802429198,70.34820120239257 72.170178024292,70.35420120239257 C82.801178024292,70.37620120239256 85.55317802429198,74.78720120239257 85.33517802429199,91.45420120239257 C85.217178024292,100.47320120239257 85.272178024292,101.58120120239258 85.848178024292,101.76420120239257 C92.884178024292,103.99320120239258 106.641178024292,104.04920120239257 115.676178024292,101.88420120239257 L119.350178024292,101.00420120239258 L122.00117802429199,103.37720120239257 C129.384178024292,109.98120120239258 128.515178024292,110.08220120239258 138.74117802429197,101.43120120239257 C148.264178024292,93.37520120239259 148.15917802429198,93.84320120239258 141.86317802429198,87.45620120239258 L137.631178024292,83.16320120239257 L138.40017802429202,79.85620120239258 C139.48917802429202,75.17420120239257 139.82317802429202,34.93520120239259 138.821178024292,29.12920120239258 C136.502178024292,15.691201202392591 128.157178024292,7.460201202392568 113.659178024292,4.311201202392567 C110.11517802429199,3.5412012023925854 97.52917802429198,2.936201202392567 94.403178024292,3.3842012023925747 M106.111178024292,27.35920120239257 C112.38817802429199,29.223201202392573 113.003178024292,31.54220120239259 113.003178024292,53.34920120239258 C113.003178024292,75.15620120239257 112.38817802429199,77.47520120239258 106.111178024292,79.33920120239259 C98.67317802429199,81.54820120239259 91.665178024292,78.91020120239259 89.91217802429199,73.24220120239258 C88.85617802429198,69.82620120239258 88.838178024292,36.92720120239258 89.891178024292,33.53020120239259 C91.669178024292,27.79020120239258 98.63817802429199,25.13920120239257 106.111178024292,27.35920120239257 " fill="#f3c35c" visibility="visible"/></g></g></svg>